<svg xmlns="http://www.w3.org/2000/svg" width="42" height="33" viewBox="0 0 42 33"><g><g><path fill="#ffae00" d="M41.831 10.744l-3.452 3.47a13.344 13.344 0 0 1-3.771 7.8l-.86.865a2.625 2.625 0 0 1-.138 3.543 2.58 2.58 0 0 1-1.62.754 2.624 2.624 0 0 1-.595 2.761 2.573 2.573 0 0 1-1.836.765 2.573 2.573 0 0 1-1.836-.765l-.004-.004a2.598 2.598 0 0 1-2.546 2.1 2.58 2.58 0 0 1-1.835-.763l-.42-.422c-.097.49-.333.958-.71 1.337a2.58 2.58 0 0 1-1.836.763c-.57 0-1.14-.187-1.61-.561a2.569 2.569 0 0 1-1.67.612 2.573 2.573 0 0 1-1.836-.765 2.618 2.618 0 0 1-.73-2.235 2.58 2.58 0 0 1-2.223-.734 2.6 2.6 0 0 1-.726-2.269 2.581 2.581 0 0 1-2.032-.756 2.6 2.6 0 0 1-.76-1.846c0-.555.171-1.082.488-1.524l-.851-.856a13.343 13.343 0 0 1-3.771-7.799L.167 9.706a.583.583 0 0 1 0-.82.575.575 0 0 1 .816 0l4.627 4.652a.58.58 0 0 1 .166.35 12.175 12.175 0 0 0 3.462 7.305l10.114 10.171a1.438 1.438 0 0 0 2.04 0 1.458 1.458 0 0 0 0-2.051L15.8 23.69a.583.583 0 0 1 0-.82.575.575 0 0 1 .816 0l7.537 7.578a1.438 1.438 0 0 0 2.04 0 1.457 1.457 0 0 0 0-2.05l-6.94-6.978a.582.582 0 0 1 0-.82.575.575 0 0 1 .817 0l8.468 8.515c.273.274.635.425 1.02.425s.748-.151 1.02-.425a1.458 1.458 0 0 0 0-2.051l-8.934-8.983a.583.583 0 0 1 0-.821.575.575 0 0 1 .816 0l8.294 8.34a1.438 1.438 0 0 0 2.04 0 1.457 1.457 0 0 0 0-2.051L19.771 10.455a.583.583 0 0 1 0-.82.575.575 0 0 1 .817 0l.197.198a2.118 2.118 0 0 0-.336-.792 1.953 1.953 0 0 0-1.648-.856l-3.99.028a2.564 2.564 0 0 1-1.846-.757 2.596 2.596 0 0 1-.766-1.85v-.061c0-.928.477-1.742 1.203-2.204L11.063.99a.583.583 0 0 1 0-.821.575.575 0 0 1 .817 0l2.76 2.775c.017 0 .034-.003.05-.003l7.275-.288c2.72-.108 5.43.67 7.685 2.193l3.478-3.497a.575.575 0 0 1 .816 0 .583.583 0 0 1 0 .821l-3.82 3.842a.575.575 0 0 1-.75.058 11.705 11.705 0 0 0-7.363-2.257l-7.275.288a1.439 1.439 0 0 0-1.382 1.445v.06a1.441 1.441 0 0 0 1.439 1.448h.01l3.995-.029c1.058 0 2.005.494 2.6 1.354.526.762.703 1.698.498 2.572l1.65 1.658c.345.342 3.085 2.944 5.461 1.966a.581.581 0 0 1 .437 1.074 4.069 4.069 0 0 1-1.563.304c-.373 0-.758-.048-1.15-.141l6.207 6.242.854-.86a12.175 12.175 0 0 0 3.462-7.305.58.58 0 0 1 .166-.35l3.595-3.615a.574.574 0 0 1 .816 0 .582.582 0 0 1 0 .82zm-30.45 15.1c.241 0 .473-.06.68-.17l-1.953-1.964a1.45 1.45 0 0 0-.17.684 1.445 1.445 0 0 0 1.443 1.45zm3.59 2.757l-2.008-2.02a1.443 1.443 0 0 0-.266.838c0 .387.15.752.422 1.025.504.507 1.29.558 1.853.157zm2.12 3.238c.304 0 .592-.095.834-.268l-2.009-2.02a1.458 1.458 0 0 0 .156 1.863c.273.274.635.425 1.02.425z"/></g></g></svg>