<svg xmlns="http://www.w3.org/2000/svg" width="72" height="73" viewBox="0 0 72 73"><g><g><path fill="#ffae00" d="M69.496 34.82a2.409 2.409 0 0 0 .015 2.838l1.308 1.792c1.037 1.404 1.413 3.197 1.037 4.9a6.113 6.113 0 0 1-3.007 4.018l-1.94 1.075a2.423 2.423 0 0 0-1.218 2.57l.406 2.166a6.06 6.06 0 0 1-1.203 4.854 6.134 6.134 0 0 1-4.466 2.316l-2.225.134c-1.053.06-1.955.777-2.226 1.778l-.586 2.136c-.722 2.644-3.158 4.48-5.91 4.48a6.293 6.293 0 0 1-2.33-.462l-2.061-.837a2.496 2.496 0 0 0-2.782.658l-1.459 1.673a6.173 6.173 0 0 1-4.63 2.09 6.164 6.164 0 0 1-4.557-2.03l-1.489-1.644c-.677-.762-1.835-1.015-2.782-.612l-2.045.866a6.154 6.154 0 0 1-2.421.493c-2.722 0-5.143-1.807-5.895-4.392l-.616-2.12a2.426 2.426 0 0 0-2.24-1.748l-2.226-.09a6.16 6.16 0 0 1-4.496-2.256 6.113 6.113 0 0 1-1.279-4.84l.376-2.18a2.423 2.423 0 0 0-1.263-2.54l-1.955-1.045a6.09 6.09 0 0 1-3.067-3.974 6.069 6.069 0 0 1 .962-4.914l1.278-1.808a2.408 2.408 0 0 0-.015-2.838L1.181 33.55C.143 32.146-.233 30.353.143 28.65a6.112 6.112 0 0 1 3.008-4.018l1.94-1.076a2.422 2.422 0 0 0 1.218-2.569l-.406-2.166a6.074 6.074 0 0 1 1.203-4.855 6.11 6.11 0 0 1 4.466-2.315l2.21-.134c1.053-.06 1.955-.777 2.226-1.778l.586-2.136c.722-2.644 3.158-4.481 5.91-4.481.797 0 1.579.164 2.33.463l2.06.836c.963.389 2.106.12 2.783-.657l1.443-1.673A6.172 6.172 0 0 1 35.752 0c1.73 0 3.398.747 4.556 2.031l1.489 1.644c.677.761 1.834 1.015 2.782.612l2.045-.866a6.154 6.154 0 0 1 2.42-.493c2.723 0 5.144 1.807 5.895 4.391l.647 2.106a2.426 2.426 0 0 0 2.24 1.748l2.226.09a6.16 6.16 0 0 1 4.496 2.255 6.112 6.112 0 0 1 1.279 4.84l-.376 2.181a2.423 2.423 0 0 0 1.263 2.54l1.955 1.045a6.091 6.091 0 0 1 3.067 3.973 6.069 6.069 0 0 1-.962 4.915zm-2.963-2.107l1.278-1.807c.406-.568.542-1.27.376-1.957a2.393 2.393 0 0 0-1.233-1.583L65 26.32a6.066 6.066 0 0 1-3.157-6.378l.376-2.181a2.367 2.367 0 0 0-.512-1.927 2.435 2.435 0 0 0-1.804-.897l-2.226-.09a6.137 6.137 0 0 1-5.624-4.39l-.616-2.122a2.447 2.447 0 0 0-2.346-1.748c-.33 0-.647.06-.962.195l-2.046.866a6.172 6.172 0 0 1-6.992-1.539l-1.489-1.643a2.403 2.403 0 0 0-1.82-.806c-.72 0-1.382.298-1.849.836l-1.458 1.658a6.173 6.173 0 0 1-4.632 2.091 6.292 6.292 0 0 1-2.33-.463l-2.06-.836c-.301-.12-.617-.18-.933-.18a2.443 2.443 0 0 0-2.36 1.793l-.587 2.136a6.124 6.124 0 0 1-5.564 4.467l-2.21.134a2.433 2.433 0 0 0-1.79.926 2.37 2.37 0 0 0-.481 1.942l.39 2.151c.482 2.57-.751 5.154-3.052 6.423l-1.94 1.076a2.412 2.412 0 0 0-1.203 1.598 2.337 2.337 0 0 0 .406 1.957l1.309 1.777a6.045 6.045 0 0 1 .06 7.11l-1.278 1.808a2.33 2.33 0 0 0-.391 1.957 2.393 2.393 0 0 0 1.233 1.583l1.955 1.046a6.066 6.066 0 0 1 3.157 6.378l-.376 2.181c-.12.687.06 1.375.512 1.927a2.378 2.378 0 0 0 1.79.896l2.225.09a6.136 6.136 0 0 1 5.624 4.392l.616 2.12a2.447 2.447 0 0 0 2.346 1.749c.33 0 .647-.06.962-.195l2.045-.866a6.171 6.171 0 0 1 6.992 1.539l1.49 1.643a2.402 2.402 0 0 0 1.82.806 2.42 2.42 0 0 0 1.849-.836l1.458-1.658a6.173 6.173 0 0 1 4.632-2.092c.797 0 1.579.165 2.33.464l2.06.836c.301.12.617.18.933.18a2.443 2.443 0 0 0 2.36-1.793l.587-2.121c.692-2.525 2.933-4.317 5.564-4.467l2.21-.134a2.433 2.433 0 0 0 1.79-.926 2.37 2.37 0 0 0 .481-1.942l-.406-2.166c-.481-2.57.752-5.153 3.053-6.423l1.94-1.076a2.412 2.412 0 0 0 1.203-1.598c.15-.687 0-1.39-.361-1.957l-1.309-1.778a6.045 6.045 0 0 1-.06-7.11zm-30.54 25.334c-11.97 0-21.7-9.68-21.7-21.555 0-11.89 9.73-21.555 21.7-21.555 11.97 0 21.698 9.665 21.698 21.555 0 11.876-9.729 21.555-21.699 21.555zm0-39.45c-9.94 0-18.015 8.037-18.015 17.895 0 9.874 8.09 17.896 18.014 17.896 9.925 0 18.015-8.037 18.015-17.896 0-9.858-8.075-17.895-18.015-17.895zm-1.43 23.81a1.84 1.84 0 0 1-2.6 0l-3.925-3.913a1.826 1.826 0 0 1 .015-2.584 1.842 1.842 0 0 1 2.601 0l2.617 2.614 8.06-7.962a1.874 1.874 0 0 1 2.616.015 1.826 1.826 0 0 1-.015 2.584z"/></g></g></svg>