<svg xmlns="http://www.w3.org/2000/svg" width="77" height="74" viewBox="0 0 77 74"><g><g><path fill="#ffae00" d="M65.202 57.83v13.466a2.705 2.705 0 0 1-2.7 2.704 2.697 2.697 0 0 1-1.91-.792L45.348 57.937H13.5C6.056 57.937 0 51.87 0 44.414V13.522C0 6.066 6.056 0 13.5 0h50C70.944 0 77 6.066 77 13.522v30.892c0 6.88-5.154 12.575-11.798 13.416zm8.499-44.302c0-4.787-5.186-9.98-9.965-9.98H13.264c-4.78 0-10.181 5.193-10.181 9.98v30.89c0 4.787 5.402 9.547 10.18 9.547H45.51c.767 0 1.501.738 2.043 1.28l14.39 14.844V56.643a2.892 2.892 0 0 1 2.89-2.894h1.067c4.238 0 7.802-4.76 7.802-9.547zM58.37 39.055H18.629c-1.491 0-2.7-.561-2.7-2.055 0-1.494 1.209-2.055 2.7-2.055h39.744c1.49 0 2.7.561 2.7 2.055 0 1.494-1.21 2.055-2.7 2.055zm0-15.145H18.629c-1.491 0-2.7-.562-2.7-2.055 0-1.494 1.209-2.055 2.7-2.055h39.744c1.49 0 2.7.561 2.7 2.055 0 1.493-1.21 2.055-2.7 2.055z"/></g></g></svg>