<svg xmlns="http://www.w3.org/2000/svg" width="118" height="118" viewBox="0 0 118 118"><defs><mask id="215db" width="2" height="2" x="-1" y="-1"><path fill="#fff" d="M3 3h112v112H3z"/><path d="M59 3c30.928 0 56 25.072 56 56s-25.072 56-56 56S3 89.928 3 59 28.072 3 59 3z"/></mask><filter id="215da" width="140" height="140" x="-11" y="-11" filterUnits="userSpaceOnUse"><feOffset in="SourceGraphic" result="FeOffset1057Out"/><feGaussianBlur in="FeOffset1057Out" result="FeGaussianBlur1058Out" stdDeviation="1.6 1.6"/></filter></defs><g><g opacity=".8"><g filter="url(#215da)"><path fill="none" d="M59 3c30.928 0 56 25.072 56 56s-25.072 56-56 56S3 89.928 3 59 28.072 3 59 3z" mask="url(&quot;#215db&quot;)"/><path fill="#181818" fill-opacity=".4" d="M59 3c30.928 0 56 25.072 56 56s-25.072 56-56 56S3 89.928 3 59 28.072 3 59 3z"/></g><path fill="#fff" d="M59 3c30.928 0 56 25.072 56 56s-25.072 56-56 56S3 89.928 3 59 28.072 3 59 3z"/></g><g><path fill="#1283b3" d="M55.21 81.508a4.847 4.847 0 0 1 0-6.948l10.82-10.614H41.018c-2.771 0-5.018-2.2-5.018-4.913s2.247-4.913 5.018-4.913h25.135L55.211 43.386a4.847 4.847 0 0 1 0-6.948c1.956-1.919 5.127-1.919 7.082 0L80.74 54.534c.327.32.598.675.815 1.051A4.844 4.844 0 0 1 83 59.033a4.854 4.854 0 0 1-1.627 3.621 4.957 4.957 0 0 1-.633.758L62.293 81.508c-1.955 1.919-5.126 1.919-7.082 0z"/></g></g></svg>