<svg xmlns="http://www.w3.org/2000/svg" width="118" height="118" viewBox="0 0 118 118"><defs><mask id="lnlxb" width="2" height="2" x="-1" y="-1"><path fill="#fff" d="M3 3h112v112H3z"/><path d="M59 3c30.928 0 56 25.072 56 56s-25.072 56-56 56S3 89.928 3 59 28.072 3 59 3z"/></mask><filter id="lnlxa" width="140" height="140" x="-11" y="-11" filterUnits="userSpaceOnUse"><feOffset in="SourceGraphic" result="FeOffset1032Out"/><feGaussianBlur in="FeOffset1032Out" result="FeGaussianBlur1033Out" stdDeviation="1.6 1.6"/></filter></defs><g><g opacity=".8"><g filter="url(#lnlxa)"><path fill="none" d="M59 3c30.928 0 56 25.072 56 56s-25.072 56-56 56S3 89.928 3 59 28.072 3 59 3z" mask="url(&quot;#lnlxb&quot;)"/><path fill="#181818" fill-opacity=".4" d="M59 3c30.928 0 56 25.072 56 56s-25.072 56-56 56S3 89.928 3 59 28.072 3 59 3z"/></g><path fill="#fff" d="M59 3c30.928 0 56 25.072 56 56s-25.072 56-56 56S3 89.928 3 59 28.072 3 59 3z"/></g><g><path fill="#1283b3" d="M62.79 81.508a4.847 4.847 0 0 0 0-6.948L51.97 63.946h25.012c2.771 0 5.018-2.2 5.018-4.913s-2.247-4.913-5.018-4.913H51.847l10.942-10.734a4.847 4.847 0 0 0 0-6.948c-1.956-1.919-5.127-1.919-7.083 0L37.26 54.534c-.327.32-.598.675-.816 1.051A4.845 4.845 0 0 0 35 59.033c0 1.433.627 2.723 1.627 3.621.181.268.392.522.633.758l18.446 18.096c1.956 1.919 5.127 1.919 7.083 0z"/></g></g></svg>