<svg xmlns="http://www.w3.org/2000/svg" width="35" height="33" viewBox="0 0 35 33"><g><g><path fill="#ffae00" d="M33.556 32.999H15.616a1.444 1.444 0 0 1-1.443-1.445v-2.17-.035c.019-.797.68-1.43 1.477-1.41h.412a1.436 1.436 0 0 1 0-.207v-13.97a4.352 4.352 0 0 0-2.903 5.409c.643 2.493.775 6.01-.875 7.735a3.355 3.355 0 0 1-2.474.983 5.601 5.601 0 0 1-1.27-.157 4.126 4.126 0 0 1-3.077-2.345c-1.55-3.583 1.914-9.651 2.062-9.907.09-.09 3.704-5.77.916-9.338l-.9 1.132c-.237.3-.584.493-.964.536h-.124a1.425 1.425 0 0 1-.9-.313l-3.1-2.477a1.445 1.445 0 0 1-.247-2.055l.923-1.116a4.455 4.455 0 0 0-2.4-.536.644.644 0 1 1-.165-1.28C4.036-.43 8.53 4.326 8.72 4.525c4.66 4.169.1 11.26-.099 11.558-.008.024-3.283 5.754-1.971 8.784.4.88 1.215 1.5 2.17 1.651.886.328 1.881.14 2.59-.487 1.228-1.255 1.154-4.276.56-6.555a5.675 5.675 0 0 1 .808-4.739 5.602 5.602 0 0 1 3.3-2.279V1.726c0-.799.646-1.445 1.443-1.445h14.104c.798 0 1.444.647 1.444 1.445v26.006c.005.069.005.138 0 .207h.486c.798 0 1.444.646 1.444 1.444v2.171c0 .798-.646 1.445-1.444 1.445zM7.492 5.077L4.391 2.601a.198.198 0 0 0-.149-.042.205.205 0 0 0-.14.075l-.915 1.14a.207.207 0 0 0 0 .288l3.1 2.477a.198.198 0 0 0 .15.041.207.207 0 0 0 .14-.074l.915-1.131a.208.208 0 0 0 .074-.157.199.199 0 0 0-.074-.14zM31.85 1.726a.206.206 0 0 0-.206-.207H17.505a.206.206 0 0 0-.206.207v26.023c.01.113.11.198.223.19h14.12a.206.206 0 0 0 .207-.207zm1.947 27.657l-.003-.036a.206.206 0 0 0-.237-.17H15.65a.206.206 0 0 0-.207.206v2.171c0 .114.093.207.207.207h17.94a.206.206 0 0 0 .206-.207zm-4.95-14.448h-8.544a1.444 1.444 0 0 1-1.444-1.445V4.93c0-.798.646-1.445 1.444-1.445h8.545c.797 0 1.443.647 1.443 1.445v8.561c0 .798-.646 1.445-1.443 1.445zm.207-10.006a.207.207 0 0 0-.206-.207h-8.545a.207.207 0 0 0-.207.207v8.561c0 .114.093.207.207.207h8.545c.11 0 .202-.087.206-.199zm-7.77 12.343h6.599a.619.619 0 1 1 0 1.238h-6.599a.619.619 0 1 1 0-1.238z"/></g></g></svg>