<svg xmlns="http://www.w3.org/2000/svg" width="40" height="40" viewBox="0 0 40 40"><g><g><path fill="#ffae00" d="M20 40C8.972 40 0 31.028 0 20S8.972 0 20 0s20 8.972 20 20-8.972 20-20 20zm0-38.667C9.707 1.333 1.333 9.706 1.333 20c0 10.293 8.374 18.666 18.667 18.666 10.293 0 18.667-8.373 18.667-18.666C38.667 9.706 30.293 1.333 20 1.333zM35.333 20v-1.334H38V20zm-13.275.419l-.667 1.154-1.151-.664-.663 1.146-1.153-.666.663-1.146-8.074-4.662.667-1.155 8.074 4.662L27.086 6.4l1.153.666-7.332 12.688zm-3.391-18.42H20v2.667h-1.333zm2.666 36H20v-2.666h1.333zM2 20h2.667v1.334H2z"/></g></g></svg>